<?xml version="1.0" standalone="no"?>
<!DOCTYPE svg PUBLIC "-//W3C//DTD SVG 20010904//EN"
 "http://www.w3.org/TR/2001/REC-SVG-20010904/DTD/svg10.dtd">
<svg version="1.0" xmlns="http://www.w3.org/2000/svg"
 width="1000.000000pt" height="1000.000000pt" viewBox="0 0 1000.000000 1000.000000"
 preserveAspectRatio="xMidYMid meet">

<g transform="translate(0.000000,1000.000000) scale(0.100000,-0.100000)"
fill="#000000" stroke="none">
<path d="M7715 8266 c-129 -41 -296 -156 -515 -354 -142 -129 -607 -600 -788
-797 -80 -88 -191 -207 -246 -264 l-101 -103 55 -51 c213 -196 605 -537 614
-534 34 11 637 692 850 958 l78 99 67 -59 c36 -32 76 -70 89 -84 l23 -25 -198
-213 c-109 -118 -220 -239 -248 -270 -27 -30 -125 -136 -216 -234 -91 -99
-242 -263 -334 -365 -93 -102 -223 -243 -289 -313 -67 -71 -133 -146 -147
-168 -24 -35 -26 -43 -17 -78 13 -50 32 -67 88 -80 42 -9 45 -9 71 22 111 129
161 185 380 422 30 33 154 168 274 300 120 132 276 301 345 375 69 74 148 160
176 190 27 30 101 111 164 179 63 68 143 156 177 195 l63 70 -23 24 c-12 14
-86 81 -164 149 -79 69 -143 129 -143 133 0 5 22 42 50 83 164 249 250 434
250 539 0 112 -76 218 -179 251 -62 20 -149 21 -206 3z"/>
<path d="M5846 6484 c-26 -29 -112 -127 -190 -217 -77 -90 -251 -289 -386
-442 -277 -316 -609 -694 -839 -959 -229 -263 -422 -479 -441 -493 -9 -6 -29
-30 -44 -52 l-28 -40 22 -28 c26 -34 237 -231 300 -281 25 -20 81 -71 126
-115 l81 -78 145 143 c79 79 254 256 388 393 134 138 331 340 439 450 108 110
220 227 249 260 30 33 117 125 195 205 162 166 469 489 602 634 l90 99 -45 39
c-25 22 -168 151 -318 287 -150 135 -278 247 -285 248 -6 0 -34 -23 -61 -53z"/>
<path d="M3630 4056 c-96 -45 -239 -111 -318 -145 -110 -49 -143 -68 -147 -85
-3 -11 -14 -68 -25 -125 -49 -251 -170 -704 -255 -950 -53 -157 -32 -151 140
40 66 73 178 196 249 273 159 174 162 179 147 212 -19 42 -14 132 9 170 23 36
91 74 133 74 98 0 193 -119 167 -209 -12 -44 -54 -97 -90 -116 -33 -17 -87
-19 -124 -5 -23 8 -35 -2 -188 -164 -300 -318 -378 -404 -388 -432 -6 -15 -8
-29 -6 -31 3 -3 69 22 148 55 79 32 220 86 313 120 94 33 294 105 445 159
l274 98 32 100 c83 258 167 532 171 556 4 22 -14 42 -153 165 -87 76 -202 181
-254 232 -53 50 -98 92 -101 92 -2 0 -83 -38 -179 -84z"/>
<path d="M5979 3001 c-75 -11 -172 -27 -215 -36 -144 -31 -375 -105 -488 -156
-61 -28 -146 -66 -188 -85 -115 -51 -197 -100 -441 -263 -423 -280 -624 -373
-920 -422 -114 -19 -156 -21 -326 -16 -335 9 -622 70 -1071 227 -359 126 -326
117 -351 94 -12 -10 -25 -29 -30 -42 -21 -55 20 -78 338 -190 464 -164 808
-232 1168 -232 251 0 430 30 632 106 180 67 278 122 698 394 318 205 453 274
687 351 201 66 335 98 533 126 187 26 513 24 735 -6 175 -23 460 -78 575 -111
73 -21 131 -25 153 -12 16 11 33 68 25 88 -9 24 -50 40 -203 77 -357 88 -576
117 -915 122 -215 4 -284 1 -396 -14z"/>
</g>
</svg>
